<?xml version="1.0" encoding="UTF-8"?>
<svg version="1.1" xmlns="http://www.w3.org/2000/svg" width="100" height="100">
<path d="M0 0 C33 0 66 0 100 0 C100 33 100 66 100 100 C67 100 34 100 0 100 C0 67 0 34 0 0 Z " fill="#484953" transform="translate(0,0)"/>
<path d="M0 0 C3.17955522 1.31329455 4.37702109 2.10342577 5.875 5.1875 C6.0625 7.9375 6.0625 7.9375 5.875 10.1875 C6.865 10.1875 7.855 10.1875 8.875 10.1875 C8.875 12.1675 8.875 14.1475 8.875 16.1875 C8.215 15.5275 7.555 14.8675 6.875 14.1875 C6.545 14.8475 6.215 15.5075 5.875 16.1875 C6.535 16.8475 7.195 17.5075 7.875 18.1875 C7.545 18.8475 7.215 19.5075 6.875 20.1875 C5.885 20.1875 4.895 20.1875 3.875 20.1875 C3.99009661 21.60500563 4.11753658 23.02151169 4.25 24.4375 C4.35441406 25.62085938 4.35441406 25.62085938 4.4609375 26.828125 C4.9292882 29.49684031 5.23751681 31.0072047 6.875 33.1875 C9.31350231 34.32348522 11.58853633 35.21967181 14.125 36.0625 C15.57744699 36.5842033 17.02925906 37.10767724 18.48046875 37.6328125 C20.61283416 38.39025866 22.74634534 39.14306305 24.88525391 39.88183594 C31.31373108 42.13991433 36.86349319 44.30765597 41.25 49.6875 C43.875 55.1875 43.875 55.1875 43.875 69.1875 C14.175 69.1875 -15.525 69.1875 -46.125 69.1875 C-44.84580228 60.23311597 -43.50710524 52.08537244 -36.125 46.1875 C-30.48945489 42.65939872 -24.43499594 39.29083198 -18.125 37.1875 C-18.01155765 28.95482685 -20.06107435 23.73364252 -24.62890625 16.9140625 C-26.22098603 14.01256985 -26.4498722 12.43622201 -26.125 9.1875 C-24.805 9.1875 -23.485 9.1875 -22.125 9.1875 C-22.228125 8.300625 -22.33125 7.41375 -22.4375 6.5 C-22.125 3.1875 -22.125 3.1875 -20.4375 0.25 C-14.34291684 -3.54474046 -6.75601236 -1.55907977 0 0 Z " fill="#F9F7F8" transform="translate(56.125,30.8125)"/>
<path d="M0 0 C3.17955522 1.31329455 4.37702109 2.10342577 5.875 5.1875 C6.0625 7.9375 6.0625 7.9375 5.875 10.1875 C6.865 10.1875 7.855 10.1875 8.875 10.1875 C8.875 12.1675 8.875 14.1475 8.875 16.1875 C8.215 15.5275 7.555 14.8675 6.875 14.1875 C6.545 14.8475 6.215 15.5075 5.875 16.1875 C6.535 16.8475 7.195 17.5075 7.875 18.1875 C7.545 18.8475 7.215 19.5075 6.875 20.1875 C5.885 20.1875 4.895 20.1875 3.875 20.1875 C4.205 23.4875 4.535 26.7875 4.875 30.1875 C-2.77425373 35.03202736 -2.77425373 35.03202736 -5.328125 36.1640625 C-7.4739839 37.12138193 -7.4739839 37.12138193 -8.125 40.1875 C-8.785 40.1875 -9.445 40.1875 -10.125 40.1875 C-10.785 39.1975 -11.445 38.2075 -12.125 37.1875 C-15.17929073 35.97465124 -15.17929073 35.97465124 -18.125 35.1875 C-18.145625 33.95 -18.16625 32.7125 -18.1875 31.4375 C-18.76487732 25.73589898 -21.53126256 21.69628372 -24.62890625 16.984375 C-26.19938753 14.0484361 -26.45297725 12.45534605 -26.125 9.1875 C-24.805 9.1875 -23.485 9.1875 -22.125 9.1875 C-22.228125 8.300625 -22.33125 7.41375 -22.4375 6.5 C-22.125 3.1875 -22.125 3.1875 -20.4375 0.25 C-14.34291684 -3.54474046 -6.75601236 -1.55907977 0 0 Z " fill="#D6A59B" transform="translate(56.125,30.8125)"/>
<path d="M0 0 C0.66 0.33 1.32 0.66 2 1 C0.10646634 2.89353366 -1.84526801 4.4198632 -4 6 C-4.66 5.67 -5.32 5.34 -6 5 C-6 6.98 -6 8.96 -6 11 C-7.32 11 -8.64 11 -10 11 C-10 11.66 -10 12.32 -10 13 C-12.31 12.67 -14.62 12.34 -17 12 C-17.33 13.32 -17.66 14.64 -18 16 C-18.66 16 -19.32 16 -20 16 C-20.33 18.97 -20.66 21.94 -21 25 C-20.01 24.67 -19.02 24.34 -18 24 C-18.33 24.99 -18.66 25.98 -19 27 C-20.32 27 -21.64 27 -23 27 C-23 27.66 -23 28.32 -23 29 C-22.34 29.33 -21.68 29.66 -21 30 C-21.66 30 -22.32 30 -23 30 C-23 30.99 -23 31.98 -23 33 C-22.34 33 -21.68 33 -21 33 C-21 33.99 -21 34.98 -21 36 C-28.92 36 -36.84 36 -45 36 C-43.72080228 27.04561597 -42.38210524 18.89787244 -35 13 C-29.36445489 9.47189872 -23.30999594 6.10333198 -17 4 C-16.67 3.34 -16.34 2.68 -16 2 C-13.0625 2.8125 -13.0625 2.8125 -10 4 C-9.505 5.485 -9.505 5.485 -9 7 C-8.34 7 -7.68 7 -7 7 C-6.95875 6.401875 -6.9175 5.80375 -6.875 5.1875 C-6 3 -6 3 -3.0625 1.1875 C-2.051875 0.795625 -1.04125 0.40375 0 0 Z " fill="#F2EFF0" transform="translate(55,64)"/>
<path d="M0 0 C3.06492403 1.56880499 5.16002287 3.05494784 7 6 C7.94768315 11.86834564 8.14222765 17.78415654 5 23 C4.34 23 3.68 23 3 23 C3 22.01 3 21.02 3 20 C1.68 19.67 0.36 19.34 -1 19 C-1 18.34 -1 17.68 -1 17 C-3.33235632 16.62031409 -5.65600111 16.29680505 -8 16 C-9.0621875 15.85820312 -10.124375 15.71640625 -11.21875 15.5703125 C-12.93578125 15.38082031 -12.93578125 15.38082031 -14.6875 15.1875 C-15.78449219 15.05730469 -16.88148437 14.92710938 -18.01171875 14.79296875 C-21.09474626 14.72881247 -21.09474626 14.72881247 -23.33203125 16.80078125 C-25.17301556 18.98350499 -25.17301556 18.98350499 -26 22 C-26.66 22 -27.32 22 -28 22 C-30.71784523 16.56430954 -30.78128369 11.49034178 -29 5.8125 C-22.23547857 -3.70010826 -10.30094659 -4.44354559 0 0 Z " fill="#151519" transform="translate(60,15)"/>
<path d="M0 0 C6.64261028 1.63151832 9.97066988 4.20638247 13.72265625 9.94921875 C16.09169066 15.60737127 15.41474522 20.95656959 15 27 C10.38 27 5.76 27 1 27 C0.97289877 24.4374282 0.95311229 21.87514635 0.9375 19.3125 C0.92912109 18.59126953 0.92074219 17.87003906 0.91210938 17.12695312 C0.89456368 13.28444618 1.06475779 9.73360474 2 6 C1.34 5.67 0.68 5.34 0 5 C0 3.35 0 1.7 0 0 Z " fill="#F3F2F8" transform="translate(85,73)"/>
<path d="M0 0 C1.79068573 2.6860286 2.66055791 4.6626589 3.625 7.6875 C3.88539062 8.49574219 4.14578125 9.30398437 4.4140625 10.13671875 C4.60742188 10.75160156 4.80078125 11.36648437 5 12 C5.99 11.835 6.98 11.67 8 11.5 C12.02732942 10.91525483 15.93474623 10.92867976 20 11 C19.67 11.99 19.34 12.98 19 14 C18.34 14 17.68 14 17 14 C17 14.66 17 15.32 17 16 C14.69 16 12.38 16 10 16 C10 16.99 10 17.98 10 19 C13.02773788 19.66623426 15.89448069 20.14589688 19 20 C21.96050874 17.70800597 21.96050874 17.70800597 24 15 C24.66 15 25.32 15 26 15 C26.33 13.68 26.66 12.36 27 11 C27.33 13.64 27.66 16.28 28 19 C26.75146327 19.79397239 25.50109957 20.58507217 24.25 21.375 C23.55390625 21.81585938 22.8578125 22.25671875 22.140625 22.7109375 C20 24 20 24 17.796875 24.9765625 C15.6510161 25.93388193 15.6510161 25.93388193 15 29 C14.34 29 13.68 29 13 29 C12.34 28.01 11.68 27.02 11 26 C7.94570927 24.78715124 7.94570927 24.78715124 5 24 C4.97421875 23.443125 4.9484375 22.88625 4.921875 22.3125 C4.53740986 17.13969628 3.50935727 13.33442433 0.9375 8.82421875 C-0.073032 6.85789191 -0.65135129 5.18341255 -1 3 C-0.67 2.01 -0.34 1.02 0 0 Z " fill="#A27668" transform="translate(33,42)"/>
<path d="M0 0 C6.0271652 -0.21828767 11.36237932 -0.30106967 17 2 C19.46104136 4.3022645 19.95785436 5.38186398 20.1875 8.75 C20.0946875 9.86375 20.0946875 9.86375 20 11 C20.99 11 21.98 11 23 11 C23 12.98 23 14.96 23 17 C22.34 16.34 21.68 15.68 21 15 C20.67 15.66 20.34 16.32 20 17 C20.66 17.66 21.32 18.32 22 19 C21.67 19.66 21.34 20.32 21 21 C20.01 21 19.02 21 18 21 C17.67 20.01 17.34 19.02 17 18 C16.01 18.33 15.02 18.66 14 19 C14.33 17.02 14.66 15.04 15 13 C13.35 13 11.7 13 10 13 C10 12.34 10 11.68 10 11 C9.01 11 8.02 11 7 11 C7.32960216 16.01535052 7.32960216 16.01535052 10 20 C7.03 20 4.06 20 1 20 C1 19.34 1 18.68 1 18 C2.65 18 4.3 18 6 18 C5.91298828 17.09507813 5.91298828 17.09507813 5.82421875 16.171875 C5.68446818 13.69629341 5.64067362 11.4561015 6 9 C8.5 6.4375 8.5 6.4375 11 5 C7.57653445 1.85041169 4.55737263 1.43820891 0 1 C0 0.67 0 0.34 0 0 Z " fill="#BC908A" transform="translate(42,30)"/>
<path d="M0 0 C0.99 0 1.98 0 3 0 C3 0.66 3 1.32 3 2 C4.65 2 6.3 2 8 2 C8 3.65 8 5.3 8 7 C8.99 6.67 9.98 6.34 11 6 C10.67 9.3 10.34 12.6 10 16 C9.34 16 8.68 16 8 16 C7.67 16.99 7.34 17.98 7 19 C5.5 20.75 5.5 20.75 3 22 C-0.05306254 21.95262489 -2.99674544 21.53262848 -6 21 C-6.66 19.02 -7.32 17.04 -8 15 C-3.545 15.99 -3.545 15.99 1 17 C1 16.34 1 15.68 1 15 C2.5 13.375 2.5 13.375 4 12 C1.36 12.33 -1.28 12.66 -4 13 C-4.33 12.34 -4.66 11.68 -5 11 C-3.68 11 -2.36 11 -1 11 C-1 10.34 -1 9.68 -1 9 C-0.34 8.67 0.32 8.34 1 8 C0.835 7.4225 0.67 6.845 0.5 6.25 C0 4 0 4 0 0 Z " fill="#CB9F95" transform="translate(49,41)"/>
<path d="M0 0 C1.32 0.33 2.64 0.66 4 1 C4.05418326 3.08304538 4.09287551 5.16649768 4.125 7.25 C4.14820312 8.41015625 4.17140625 9.5703125 4.1953125 10.765625 C4.0103949 13.82786046 3.60823023 15.44202751 2 18 C1.34 18 0.68 18 0 18 C0 17.01 0 16.02 0 15 C-1.32 14.67 -2.64 14.34 -4 14 C-4 13.34 -4 12.68 -4 12 C-9.20477383 11.19036852 -14.39259824 10.68691655 -19.64453125 10.28125 C-22 10 -22 10 -24 9 C-24 8.34 -24 7.68 -24 7 C-22.35 7 -20.7 7 -19 7 C-18.67 6.34 -18.34 5.68 -18 5 C-17.01 5.33 -16.02 5.66 -15 6 C-13.60560336 6.06665376 -12.20830125 6.08538199 -10.8125 6.0625 C-9.554375 6.041875 -8.29625 6.02125 -7 6 C-6.67 7.32 -6.34 8.64 -6 10 C-5.34 10 -4.68 10 -4 10 C-4 9.34 -4 8.68 -4 8 C-2.35 7.67 -0.7 7.34 1 7 C0.67 4.69 0.34 2.38 0 0 Z " fill="#1F1C21" transform="translate(63,20)"/>
<path d="M0 0 C0.66 0.33 1.32 0.66 2 1 C1.01 1.66 0.02 2.32 -1 3 C-0.67 3.66 -0.34 4.32 0 5 C-0.66 5 -1.32 5 -2 5 C-2 5.66 -2 6.32 -2 7 C-1.01 7 -0.02 7 1 7 C1 7.66 1 8.32 1 9 C0.34 9 -0.32 9 -1 9 C-0.34 10.98 0.32 12.96 1 15 C0.360625 15.598125 -0.27875 16.19625 -0.9375 16.8125 C-3.20310389 18.90810337 -3.20310389 18.90810337 -4 22 C-4.66 22 -5.32 22 -6 22 C-8.13312353 17.73375294 -8.58913416 13.69466281 -8 9 C-6.65178074 5.23917785 -5.62645864 3.47366385 -2.4375 1.0625 C-1.633125 0.711875 -0.82875 0.36125 0 0 Z " fill="#15161B" transform="translate(38,15)"/>
<path d="M0 0 C2.14336161 3.4766338 2.21277626 6.21229195 2.125 10.25 C2.10695313 11.32765625 2.08890625 12.4053125 2.0703125 13.515625 C2.04710937 14.33546875 2.02390625 15.1553125 2 16 C-0.64 16 -3.28 16 -6 16 C-5.43215818 10.5487185 -4.17545909 6.04706509 -2 1 C-1.34 0.67 -0.68 0.34 0 0 Z " fill="#F3F3F5" transform="translate(16,84)"/>
<path d="M0 0 C3 1 3 1 4 3 C6.15788312 3.94568583 8.35212122 4.80952045 10.5625 5.625 C11.76003906 6.07101563 12.95757812 6.51703125 14.19140625 6.9765625 C15.11824219 7.31429687 16.04507813 7.65203125 17 8 C17 8.33 17 8.66 17 9 C14.03 9 11.06 9 8 9 C7.67 9.99 7.34 10.98 7 12 C6.67 10.68 6.34 9.36 6 8 C1.85329961 10.37629089 1.85329961 10.37629089 -1 14 C-1.99 13.67 -2.98 13.34 -4 13 C-3.67 11.68 -3.34 10.36 -3 9 C-2.34 9 -1.68 9 -1 9 C-1 8.34 -1 7.68 -1 7 C-0.34 7 0.32 7 1 7 C0.65213292 5.02463255 0.65213292 5.02463255 0 3 C-0.66 2.67 -1.32 2.34 -2 2 C-1.34 1.34 -0.68 0.68 0 0 Z " fill="#E0D9DD" transform="translate(59,61)"/>
<path d="M0 0 C1.79068573 2.6860286 2.66055791 4.6626589 3.625 7.6875 C3.88539062 8.49574219 4.14578125 9.30398437 4.4140625 10.13671875 C4.60742188 10.75160156 4.80078125 11.36648437 5 12 C5.99 11.835 6.98 11.67 8 11.5 C12.02732942 10.91525483 15.93474623 10.92867976 20 11 C19.67 11.99 19.34 12.98 19 14 C18.34 14 17.68 14 17 14 C17 14.66 17 15.32 17 16 C14.33333333 16 11.66666667 16 9 16 C8.67 16.99 8.34 17.98 8 19 C1.43917474 11.84086049 1.43917474 11.84086049 0 7 C-0.226875 6.29875 -0.45375 5.5975 -0.6875 4.875 C-1 3 -1 3 0 0 Z " fill="#BF9586" transform="translate(33,42)"/>
<path d="M0 0 C14.85 0 29.7 0 45 0 C45 0.33 45 0.66 45 1 C44.10861328 1.03758423 44.10861328 1.03758423 43.19921875 1.07592773 C40.46598993 1.19308888 37.73300633 1.31526273 35 1.4375 C34.06542969 1.47681641 33.13085938 1.51613281 32.16796875 1.55664062 C28.03279878 1.7446029 23.94558327 1.96194383 19.84375 2.53125 C15.68800005 3.03804877 11.6779326 3.11278993 7.5 3.0625 C6.77296875 3.05798828 6.0459375 3.05347656 5.296875 3.04882812 C3.53121319 3.03721193 1.7655947 3.01928441 0 3 C0 2.01 0 1.02 0 0 Z " fill="#21232A" transform="translate(0,0)"/>
<path d="M0 0 C0 1.65 0 3.3 0 5 C-0.66 5 -1.32 5 -2 5 C-2.73080266 6.97746603 -3.39421747 8.98072489 -4 11 C-3.67 11.66 -3.34 12.32 -3 13 C-3.66 13 -4.32 13 -5 13 C-5 13.66 -5 14.32 -5 15 C-5.66 15 -6.32 15 -7 15 C-7.33 14.34 -7.66 13.68 -8 13 C-9.32 13 -10.64 13 -12 13 C-11.75 9.625 -11.75 9.625 -11 6 C-9.3125 4.8125 -9.3125 4.8125 -7 4 C-5.948125 3.29875 -4.89625 2.5975 -3.8125 1.875 C-1 0 -1 0 0 0 Z " fill="#F5F0F5" transform="translate(60,63)"/>
<path d="M0 0 C0 2.31 0 4.62 0 7 C-0.66 6.67 -1.32 6.34 -2 6 C-2.99 6.33 -3.98 6.66 -5 7 C-5 8.32 -5 9.64 -5 11 C-3.02 10.67 -1.04 10.34 1 10 C1 10.66 1 11.32 1 12 C-3.455 12.495 -3.455 12.495 -8 13 C-9.32 9.7 -10.64 6.4 -12 3 C-10.35601814 1.35601814 -8.240997 1.36723664 -6 0.9375 C-5.0925 0.76089844 -4.185 0.58429687 -3.25 0.40234375 C-1 0 -1 0 0 0 Z " fill="#EDBFB6" transform="translate(47,40)"/>
<path d="M0 0 C4.52164861 0.34436397 6.5815314 0.61302245 10.171875 3.6171875 C10.81125 4.4215625 11.450625 5.2259375 12.109375 6.0546875 C6.14179383 8.34014412 2.18744391 7.84640849 -3.890625 6.0546875 C-2.81851934 0.08152742 -2.81851934 0.08152742 0 0 Z " fill="#EDBFB6" transform="translate(41.890625,29.9453125)"/>
<path d="M0 0 C6.0271652 -0.21828767 11.36237932 -0.30106967 17 2 C19.46104136 4.3022645 19.95785436 5.38186398 20.1875 8.75 C20.0946875 9.86375 20.0946875 9.86375 20 11 C20.99 11.33 21.98 11.66 23 12 C21.68 12.33 20.36 12.66 19 13 C18.7525 12.0409375 18.7525 12.0409375 18.5 11.0625 C17.218214 8.83880759 17.218214 8.83880759 15.0859375 8.51171875 C13.06424845 8.2724022 11.03158061 8.13106972 9 8 C9.66 7.01 10.32 6.02 11 5 C7.57653445 1.85041169 4.55737263 1.43820891 0 1 C0 0.67 0 0.34 0 0 Z " fill="#9A706A" transform="translate(42,30)"/>
<path d="M0 0 C0.495 0.165 0.99 0.33 1.5 0.5 C5.03444089 1.20688818 8.39690701 1.06005155 12 1 C12.99 2.98 13.98 4.96 15 7 C14.071875 6.855625 13.14375 6.71125 12.1875 6.5625 C7.92591156 5.94247381 3.64780677 5.61279611 -0.64453125 5.28125 C-3 5 -3 5 -5 4 C-5 3.34 -5 2.68 -5 2 C-3.35 2 -1.7 2 0 2 C0 1.34 0 0.68 0 0 Z " fill="#422C2C" transform="translate(44,25)"/>
<path d="M0 0 C0.66 0.33 1.32 0.66 2 1 C1.01 2.98 0.02 4.96 -1 7 C1.97 7.495 1.97 7.495 5 8 C5 8.99 5 9.98 5 11 C4.15695313 11.13277344 3.31390625 11.26554687 2.4453125 11.40234375 C1.34960938 11.57894531 0.25390625 11.75554688 -0.875 11.9375 C-2.51082031 12.19853516 -2.51082031 12.19853516 -4.1796875 12.46484375 C-6.93821546 12.85551159 -6.93821546 12.85551159 -9 14 C-9 13.01 -9 12.02 -9 11 C-7.68 11 -6.36 11 -5 11 C-5.103125 10.113125 -5.20625 9.22625 -5.3125 8.3125 C-4.90501428 3.99315142 -3.2277297 2.74357025 0 0 Z " fill="#AA837B" transform="translate(39,29)"/>
<path d="M0 0 C0.66 0 1.32 0 2 0 C2.97730141 2.93190422 3.26475847 5.3084586 3.5 8.375 C3.77906166 11.99283504 4.2261878 15.45336075 5 19 C3.35 19 1.7 19 0 19 C0 12.73 0 6.46 0 0 Z " fill="#EBE3DE" transform="translate(80,81)"/>
<path d="M0 0 C2.97 0.495 2.97 0.495 6 1 C5.01 1.66 4.02 2.32 3 3 C3.33 3.66 3.66 4.32 4 5 C3.01 5.33 2.02 5.66 1 6 C1 7.32 1 8.64 1 10 C-0.65 10.66 -2.3 11.32 -4 12 C-4 13.32 -4 14.64 -4 16 C-4.66 16 -5.32 16 -6 16 C-6.20086443 12.28400809 -6.1519437 11.22791555 -4 8 C-3.34 8 -2.68 8 -2 8 C-2.99 6.68 -3.98 5.36 -5 4 C-3.35 3.34 -1.7 2.68 0 2 C0 1.34 0 0.68 0 0 Z " fill="#E5DFDE" transform="translate(38,66)"/>
<path d="M0 0 C0.33 0 0.66 0 1 0 C1.75942669 3.88854591 2.05245116 7.15133055 1 11 C-2.64472062 14.1225238 -6.61706183 16.08898678 -11 18 C-11.33 17.34 -11.66 16.68 -12 16 C-6.25 12.125 -6.25 12.125 -4 11 C-3.59270772 8.67843403 -3.25561323 6.3431213 -3 4 C-2.67 4.66 -2.34 5.32 -2 6 C-1.34 6 -0.68 6 0 6 C0 4.02 0 2.04 0 0 Z " fill="#585659" transform="translate(37,57)"/>
<path d="M0 0 C3.52616589 0.51602428 5.55559532 1.51213059 7.95703125 4.1484375 C11.51434948 8.97363901 13.44987407 11.84572274 13 18 C10.90217213 15.90217213 10.3490604 14.6200793 9.375 11.875 C9.11460938 11.15054688 8.85421875 10.42609375 8.5859375 9.6796875 C8.29589844 8.84824219 8.29589844 8.84824219 8 8 C6.68 8 5.36 8 4 8 C3.67 6.35 3.34 4.7 3 3 C2.01 2.67 1.02 2.34 0 2 C0 1.34 0 0.68 0 0 Z " fill="#E2E1E8" transform="translate(87,74)"/>
<path d="M0 0 C0.78375 0.04125 1.5675 0.0825 2.375 0.125 C2.045 1.115 1.715 2.105 1.375 3.125 C2.3412501 5.14152194 3.34208324 7.14179982 4.375 9.125 C4.375 10.115 4.375 11.105 4.375 12.125 C5.365 11.795 6.355 11.465 7.375 11.125 C7.705 11.785 8.035 12.445 8.375 13.125 C6.725 13.455 5.075 13.785 3.375 14.125 C2.055 10.825 0.735 7.525 -0.625 4.125 C-0.625 4.785 -0.625 5.445 -0.625 6.125 C-0.625 6.785 -0.625 7.445 -0.625 8.125 C-1.285 8.125 -1.945 8.125 -2.625 8.125 C-3.285 6.145 -3.945 4.165 -4.625 2.125 C-2.625 0.125 -2.625 0.125 0 0 Z " fill="#DCAE9F" transform="translate(34.625,40.875)"/>
<path d="M0 0 C1.32 0.33 2.64 0.66 4 1 C4 2.32 4 3.64 4 5 C4.66 5.33 5.32 5.66 6 6 C6 5.34 6 4.68 6 4 C6.99 3.67 7.98 3.34 9 3 C9.38218767 4.65614657 9.71395102 6.32457024 10 8 C9 9 9 9 6.4375 9.0625 C5.633125 9.041875 4.82875 9.02125 4 9 C4 9.66 4 10.32 4 11 C3.34 11 2.68 11 2 11 C1.34 7.37 0.68 3.74 0 0 Z " fill="#0E1013" transform="translate(55,19)"/>
<path d="M0 0 C0.99 0 1.98 0 3 0 C3 0.66 3 1.32 3 2 C4.65 2 6.3 2 8 2 C7.67 4.31 7.34 6.62 7 9 C6.01 9.33 5.02 9.66 4 10 C3.34 8.02 2.68 6.04 2 4 C1.34 4 0.68 4 0 4 C0 2.68 0 1.36 0 0 Z " fill="#E5B0A6" transform="translate(49,41)"/>
<path d="M0 0 C2.64 0 5.28 0 8 0 C8.33 0.99 8.66 1.98 9 3 C6.36 2.67 3.72 2.34 1 2 C1.32960216 7.01535052 1.32960216 7.01535052 4 11 C1.03 11 -1.94 11 -5 11 C-5 10.34 -5 9.68 -5 9 C-3.35 9 -1.7 9 0 9 C0 6.03 0 3.06 0 0 Z " fill="#9B6C66" transform="translate(48,39)"/>
<path d="M0 0 C0.33 0 0.66 0 1 0 C1 1.65 1 3.3 1 5 C1.66 5 2.32 5 3 5 C3.66 6.98 4.32 8.96 5 11 C2.69 11 0.38 11 -2 11 C-1 3.57142857 -1 3.57142857 0 0 Z " fill="#CDCDD0" transform="translate(12,89)"/>
<path d="M0 0 C0.7425 0.639375 1.485 1.27875 2.25 1.9375 C4.7111121 3.78333407 6.03466926 4.56069174 9 5 C9 6.65 9 8.3 9 10 C8.34 10 7.68 10 7 10 C6.34 9.01 5.68 8.02 5 7 C1.94570927 5.78715124 1.94570927 5.78715124 -1 5 C-0.67 3.35 -0.34 1.7 0 0 Z " fill="#C49A8F" transform="translate(39,61)"/>
<path d="M0 0 C0 2.31 0 4.62 0 7 C-0.66 6.67 -1.32 6.34 -2 6 C-2.99 6.33 -3.98 6.66 -5 7 C-5.99 7.33 -6.98 7.66 -8 8 C-8.33 6.35 -8.66 4.7 -9 3 C-8.13375 2.814375 -8.13375 2.814375 -7.25 2.625 C-4.90112244 1.97253401 -2.37184223 0 0 0 Z " fill="#F6CEC6" transform="translate(47,40)"/>
<path d="M0 0 C0.66 0.66 1.32 1.32 2 2 C1.7578125 4.3828125 1.7578125 4.3828125 1.125 7.125 C0.92132813 8.03507812 0.71765625 8.94515625 0.5078125 9.8828125 C0.34023437 10.58148438 0.17265625 11.28015625 0 12 C-0.66 11.34 -1.32 10.68 -2 10 C-2 8.68 -2 7.36 -2 6 C-3.32 5.67 -4.64 5.34 -6 5 C-4.6875 3.5 -4.6875 3.5 -3 2 C-2.01 2 -1.02 2 0 2 C0 1.34 0 0.68 0 0 Z " fill="#F2EBEA" transform="translate(64,68)"/>
<path d="M0 0 C2.20770805 -0.08165496 4.41630425 -0.13948488 6.625 -0.1875 C7.85476562 -0.22230469 9.08453125 -0.25710937 10.3515625 -0.29296875 C14.26407664 0.0212053 16.64070218 1.03093467 20 3 C20 3.33 20 3.66 20 4 C19.071875 3.855625 18.14375 3.71125 17.1875 3.5625 C12.92724677 2.93393805 8.65101758 2.65737631 4.35546875 2.37890625 C2 2 2 2 0 0 Z " fill="#724E4B" transform="translate(39,28)"/>
<path d="M0 0 C0.33 0 0.66 0 1 0 C1.33 2.64 1.66 5.28 2 8 C-0.31 9.32 -2.62 10.64 -5 12 C-5.75 10.25 -5.75 10.25 -6 8 C-4.1875 5.75 -4.1875 5.75 -2 4 C-1.34 4 -0.68 4 0 4 C0 2.68 0 1.36 0 0 Z " fill="#A57F7C" transform="translate(59,53)"/>
<path d="M0 0 C0.91007812 0.00902344 1.82015625 0.01804688 2.7578125 0.02734375 C3.45648438 0.03894531 4.15515625 0.05054688 4.875 0.0625 C4.545 1.0525 4.215 2.0425 3.875 3.0625 C3.215 3.0625 2.555 3.0625 1.875 3.0625 C1.875 3.7225 1.875 4.3825 1.875 5.0625 C-0.435 5.0625 -2.745 5.0625 -5.125 5.0625 C-5.125 4.4025 -5.125 3.7425 -5.125 3.0625 C-5.785 2.4025 -6.445 1.7425 -7.125 1.0625 C-4.60024538 -0.19987731 -2.81299534 -0.03606404 0 0 Z " fill="#B3696D" transform="translate(48.125,52.9375)"/>
<path d="M0 0 C1.5 1.1875 1.5 1.1875 3 3 C3.1875 5.6875 3.1875 5.6875 3 8 C0.36 8.33 -2.28 8.66 -5 9 C-5.33 8.34 -5.66 7.68 -6 7 C-4.68 7 -3.36 7 -2 7 C-2 6.34 -2 5.68 -2 5 C-1.34 4.67 -0.68 4.34 0 4 C-0.33 3.34 -0.66 2.68 -1 2 C-0.67 1.34 -0.34 0.68 0 0 Z " fill="#CD8A8A" transform="translate(50,45)"/>
<path d="M0 0 C2.77704031 1.38852015 3.03382737 2.96788482 4.1875 5.8125 C4.55230469 6.68519531 4.91710937 7.55789062 5.29296875 8.45703125 C6.04115271 11.14801336 5.9458895 12.415372 5 15 C3.96966118 12.87959258 2.95097146 10.75352092 1.9375 8.625 C1.36902344 7.44164063 0.80054687 6.25828125 0.21484375 5.0390625 C-0.18605469 4.03617187 -0.58695312 3.03328125 -1 2 C-0.67 1.34 -0.34 0.68 0 0 Z " fill="#E8E8F1" transform="translate(94,81)"/>
<path d="M0 0 C0.66 0 1.32 0 2 0 C2.36923077 6.4 2.36923077 6.4 0.5 9.4375 C0.005 9.953125 -0.49 10.46875 -1 11 C-1.66 10.67 -2.32 10.34 -3 10 C-2.67 9.34 -2.34 8.68 -2 8 C-2.66 7.34 -3.32 6.68 -4 6 C-3.34 5.01 -2.68 4.02 -2 3 C-1.67 3.33 -1.34 3.66 -1 4 C-0.67 2.68 -0.34 1.36 0 0 Z " fill="#7A5A5B" transform="translate(65,41)"/>
<path d="M0 0 C0.66 0.33 1.32 0.66 2 1 C0.25 5.875 0.25 5.875 -2 7 C-2.33 7.99 -2.66 8.98 -3 10 C-3.66 10 -4.32 10 -5 10 C-5.8125 8.3125 -5.8125 8.3125 -6 6 C-3.625 3.3125 -3.625 3.3125 -1 1 C-0.67 0.67 -0.34 0.34 0 0 Z " fill="#302424" transform="translate(37,27)"/>
<path d="M0 0 C0.66 0.99 1.32 1.98 2 3 C0.50260417 4.23697917 -0.99479167 5.47395833 -2.4921875 6.7109375 C-3.71051161 7.75250992 -4.86660097 8.86660097 -6 10 C-6.66 9.01 -7.32 8.02 -8 7 C-7.01 6.34 -6.02 5.68 -5 5 C-4.505 3.9790625 -4.505 3.9790625 -4 2.9375 C-3 1 -3 1 0 0 Z " fill="#5C5C63" transform="translate(21,73)"/>
<path d="M0 0 C0.66 0.33 1.32 0.66 2 1 C1.01 2.485 1.01 2.485 0 4 C-0.38499891 5.65549531 -0.72793135 7.3222433 -1 9 C-2.32 9.33 -3.64 9.66 -5 10 C-5.3125 7.8125 -5.3125 7.8125 -5 5 C-2.5 2.1875 -2.5 2.1875 0 0 Z " fill="#BB9489" transform="translate(39,29)"/>
<path d="M0 0 C1.98 0.99 1.98 0.99 4 2 C3.34 4.31 2.68 6.62 2 9 C1.34 9 0.68 9 0 9 C0 6.03 0 3.06 0 0 Z " fill="#585057" transform="translate(60,51)"/>
<path d="M0 0 C0 0.99 0 1.98 0 3 C-0.99 3.495 -0.99 3.495 -2 4 C-2 4.66 -2 5.32 -2 6 C-2.66 6 -3.32 6 -4 6 C-4 5.01 -4 4.02 -4 3 C-4.66 3 -5.32 3 -6 3 C-6 2.01 -6 1.02 -6 0 C-3.50907189 -1.24546405 -2.58919267 -0.7767578 0 0 Z " fill="#F2EAE8" transform="translate(57,72)"/>
<path d="M0 0 C3.73487777 0.4979837 5.81237635 0.87491756 9 3 C6.03 3 3.06 3 0 3 C-0.33 3.99 -0.66 4.98 -1 6 C-1.33 5.01 -1.66 4.02 -2 3 C-1.34 2.01 -0.68 1.02 0 0 Z " fill="#E3E2E5" transform="translate(67,67)"/>
<path d="M0 0 C0.33 0.66 0.66 1.32 1 2 C1.99 1.67 2.98 1.34 4 1 C4 2.32 4 3.64 4 5 C4.99 5.33 5.98 5.66 7 6 C6.67 6.66 6.34 7.32 6 8 C5.01 8 4.02 8 3 8 C2.67 7.01 2.34 6.02 2 5 C1.01 5.33 0.02 5.66 -1 6 C-0.67 4.02 -0.34 2.04 0 0 Z " fill="#C09A93" transform="translate(57,43)"/>
<path d="M0 0 C1.62490954 -0.02698189 3.24994633 -0.04638757 4.875 -0.0625 C5.77992187 -0.07410156 6.68484375 -0.08570312 7.6171875 -0.09765625 C10 0 10 0 12 1 C12.72159424 2.64363134 13.39351421 4.31050386 14 6 C13.01 6 12.02 6 11 6 C10.4225 5.360625 9.845 4.72125 9.25 4.0625 C6.29033502 1.34947377 3.92492059 1.30191697 0 1 C0 0.67 0 0.34 0 0 Z " fill="#C18E84" transform="translate(42,30)"/>
<path d="M0 0 C0.66 0.33 1.32 0.66 2 1 C1.74438677 3.3431213 1.40729228 5.67843403 1 8 C0.01 8.495 0.01 8.495 -1 9 C-1.65555119 11.52733235 -1.65555119 11.52733235 -2 14 C-2.33 14 -2.66 14 -3 14 C-3.29341888 8.32723489 -3.00559652 5.00932754 0 0 Z " fill="#1F1F25" transform="translate(33,18)"/>
<path d="M0 0 C0.99 0.33 1.98 0.66 3 1 C0.81482901 3.40575607 -1.25919671 4.79535581 -4.1875 6.1875 C-4.90292969 6.53167969 -5.61835938 6.87585938 -6.35546875 7.23046875 C-6.89816406 7.48441406 -7.44085937 7.73835938 -8 8 C-8 7.34 -8 6.68 -8 6 C-6.02678947 4.6273318 -4.02456848 3.29572383 -2 2 C-1.34 1.34 -0.68 0.68 0 0 Z " fill="#64626D" transform="translate(33,67)"/>
<path d="M0 0 C0.680625 0.639375 1.36125 1.27875 2.0625 1.9375 C5.46408839 4.3258493 7.90433701 4.67877153 12 5 C12 5.33 12 5.66 12 6 C5.9453125 6.9765625 5.9453125 6.9765625 4 7 C3.34 6.34 2.68 5.68 2 5 C1.34 5.66 0.68 6.32 0 7 C0 4.69 0 2.38 0 0 Z " fill="#A98474" transform="translate(38,57)"/>
<path d="M0 0 C2.97 0.99 5.94 1.98 9 3 C8.67 3.66 8.34 4.32 8 5 C5.69 5 3.38 5 1 5 C0.67 3.35 0.34 1.7 0 0 Z " fill="#DCA89E" transform="translate(41,56)"/>
<path d="M0 0 C3.1875 -0.3125 3.1875 -0.3125 7 0 C9.9375 2.5 9.9375 2.5 12 5 C10.68 5 9.36 5 8 5 C8 4.34 8 3.68 8 3 C5.36 2.34 2.72 1.68 0 1 C0 0.67 0 0.34 0 0 Z " fill="#DCABA3" transform="translate(42,31)"/>
<path d="M0 0 C0.66 0 1.32 0 2 0 C2.19491452 1.45736087 2.38069358 2.91594593 2.5625 4.375 C2.66691406 5.18710938 2.77132813 5.99921875 2.87890625 6.8359375 C3 9 3 9 2 11 C1.34 11 0.68 11 0 11 C0 7.37 0 3.74 0 0 Z " fill="#E4E4E5" transform="translate(18,89)"/>
<path d="M0 0 C-1.89353366 1.89353366 -3.84526801 3.4198632 -6 5 C-6.66 4.67 -7.32 4.34 -8 4 C-8 4.99 -8 5.98 -8 7 C-8.66 6.67 -9.32 6.34 -10 6 C-8.45899296 2.91798591 -7.51635481 1.27706844 -4.4375 -0.375 C-2 -1 -2 -1 0 0 Z " fill="#EBD9DC" transform="translate(57,65)"/>
<path d="M0 0 C4.97631579 4.81578947 4.97631579 4.81578947 5.0625 9.125 C5.041875 10.07375 5.02125 11.0225 5 12 C2.65085508 9.65085508 2.26859643 8.04320554 1.375 4.875 C1.11460938 3.96492188 0.85421875 3.05484375 0.5859375 2.1171875 C0.39257812 1.41851562 0.19921875 0.71984375 0 0 Z " fill="#CBCCD6" transform="translate(95,80)"/>
<path d="M0 0 C0.66 0.33 1.32 0.66 2 1 C1.54625 1.7425 1.0925 2.485 0.625 3.25 C-0.68640796 5.46930578 -1.88280803 7.67967822 -3 10 C-3.33 9.34 -3.66 8.68 -4 8 C-4.66 7.67 -5.32 7.34 -6 7 C-4.02 4.69 -2.04 2.38 0 0 Z " fill="#DFDFE2" transform="translate(20,77)"/>
<path d="M0 0 C3.63 0 7.26 0 11 0 C11 0.33 11 0.66 11 1 C8.69 1.33 6.38 1.66 4 2 C3.67 3.32 3.34 4.64 3 6 C0 2.25 0 2.25 0 0 Z " fill="#D3938B" transform="translate(38,55)"/>
<path d="M0 0 C0.33 0.99 0.66 1.98 1 3 C1.66 3 2.32 3 3 3 C3 3.99 3 4.98 3 6 C1.68 6 0.36 6 -1 6 C-1.33 7.65 -1.66 9.3 -2 11 C-2.33 11 -2.66 11 -3 11 C-3 9.35 -3 7.7 -3 6 C-2.01 5.67 -1.02 5.34 0 5 C0 3.35 0 1.7 0 0 Z " fill="#544646" transform="translate(31,34)"/>
<path d="M0 0 C2.0625 0.4375 2.0625 0.4375 4 1 C4 2.65 4 4.3 4 6 C3.34 6 2.68 6 2 6 C0.375 3.5 0.375 3.5 -1 1 C-0.67 0.67 -0.34 0.34 0 0 Z " fill="#BA9187" transform="translate(44,65)"/>
<path d="M0 0 C0.99 0 1.98 0 3 0 C3 0.66 3 1.32 3 2 C3.99 2 4.98 2 6 2 C6 2.66 6 3.32 6 4 C4.02 4 2.04 4 0 4 C0 2.68 0 1.36 0 0 Z " fill="#D7A59C" transform="translate(49,41)"/>
<path d="M0 0 C2.64 0 5.28 0 8 0 C8.33 1.32 8.66 2.64 9 4 C7.68 3.67 6.36 3.34 5 3 C5 2.34 5 1.68 5 1 C3.35 1 1.7 1 0 1 C0 0.67 0 0.34 0 0 Z " fill="#312021" transform="translate(48,26)"/>
<path d="M0 0 C0 0.99 0 1.98 0 3 C-0.99 3.33 -1.98 3.66 -3 4 C-3 4.66 -3 5.32 -3 6 C-4.65 5.67 -6.3 5.34 -8 5 C-5.37352812 3.24901874 -2.71224618 1.61268692 0 0 Z " fill="#D9D8DD" transform="translate(31,71)"/>
<path d="M0 0 C0.33 0 0.66 0 1 0 C1 1.98 1 3.96 1 6 C0.34 6 -0.32 6 -1 6 C-1 6.66 -1 7.32 -1 8 C-1.66 7.67 -2.32 7.34 -3 7 C-2.01 4.69 -1.02 2.38 0 0 Z " fill="#D3B1AD" transform="translate(59,47)"/>
<path d="M0 0 C3.60654039 2.40436026 3.85452932 3.94679607 5 8 C4.01 8 3.02 8 2 8 C1.34 5.36 0.68 2.72 0 0 Z " fill="#625656" transform="translate(32,49)"/>
<path d="M0 0 C0 2.31 0 4.62 0 7 C-1.33333333 6.33333333 -2.66666667 5.66666667 -4 5 C-3.625 3.0625 -3.625 3.0625 -3 1 C-1 0 -1 0 0 0 Z " fill="#EFBBAE" transform="translate(47,40)"/>
<path d="M0 0 C0.99 0.33 1.98 0.66 3 1 C3 2.65 3 4.3 3 6 C3.99 6.33 4.98 6.66 6 7 C4.68 7.33 3.36 7.66 2 8 C1.34 5.36 0.68 2.72 0 0 Z " fill="#9B7B77" transform="translate(59,35)"/>
</svg>
